<?xml version="1.0" encoding="UTF-8" standalone="no" ?>
<!DOCTYPE svg PUBLIC "-//W3C//DTD SVG 1.1//EN" "http://www.w3.org/Graphics/SVG/1.1/DTD/svg11.dtd">
<svg xmlns="http://www.w3.org/2000/svg" xmlns:xlink="http://www.w3.org/1999/xlink" version="1.1" width="500" height="500" viewBox="0 0 500 500" xml:space="preserve">
<desc>Created with Fabric.js 4.6.0</desc>
<defs>
</defs>
<g transform="matrix(1 0 0 1 249.74 237.85)" id="78mN2SWYQY0-0ZWUO1k4I"  >
<path style="stroke: rgb(0,0,0); stroke-width: 5; stroke-dasharray: none; stroke-linecap: butt; stroke-dashoffset: 0; stroke-linejoin: miter; stroke-miterlimit: 4; fill: rgb(255,255,255); fill-opacity: 0; fill-rule: nonzero; opacity: 1;" vector-effect="non-scaling-stroke"  transform=" translate(0, 0)" d="M 219.17429 176.50587 C 113.39223000000001 176.92442 -194.84687 176.50587 -194.84687 176.50587 C -194.84687 176.50587 -212.70400999999998 171.21486 -213.36539 158.64873 C -214.02677 146.08259 -210.71989 138.14608 -204.76751 133.51645 C -198.81512999999998 128.88682 -144.58231999999998 99.12491999999999 -144.58231999999998 99.12491999999999 C -144.58231999999998 99.12491999999999 -135.32305999999997 91.18840999999999 -135.32305999999997 80.6064 C -135.32305999999997 70.02439 -148.55056999999996 59.44237999999999 -151.19607999999997 59.44237999999999 C -153.84157999999996 59.44237999999999 -194.84686999999997 36.29422999999999 -194.84686999999997 36.29422999999999 C -194.84686999999997 36.29422999999999 -198.15374999999997 34.97147999999999 -202.12199999999996 29.01909999999999 C -206.09024999999997 23.06671999999999 -243.12728999999996 -91.35127 -243.12728999999996 -91.35127 C -243.12728999999996 -91.35127 -247.64444999999995 -103.1853 -244.97064999999995 -109.60240999999999 C -242.29684999999995 -116.01951999999999 -234.81021999999996 -123.77353 -232.13642999999996 -124.84304999999999 C -229.46262999999996 -125.91256999999999 -196.84230999999997 -136.60775999999998 -196.84230999999997 -136.60775999999998 C -196.84230999999997 -136.60775999999998 -188.55353999999997 -137.67728 -184.27546999999998 -134.7361 C -179.99739999999997 -131.79492 -177.59097999999997 -126.71471 -177.59097999999997 -126.71471 L -151.19607999999997 -47.8377 C -151.19607999999997 -47.8377 -146.30755999999997 -39.54893 -140.42520999999996 -39.54893 C -134.54285999999996 -39.54893 -131.33429999999996 -42.75749 -130.53215999999998 -47.8377 C -129.73001999999997 -52.91791 -114.04898999999997 -158.0925 -114.04898999999997 -158.0925 C -114.04898999999997 -158.0925 -109.53498999999998 -174.03948 -96.16600999999997 -176.17852 C -82.79702999999998 -178.31756 -74.77563999999997 -173.7721 -71.03231999999997 -162.54216 C -67.28899999999997 -151.31221 -59.53498999999997 -126.71471 -59.53498999999997 -126.71471 C -59.53498999999997 -126.71471 -54.98953999999997 -116.55284999999999 -50.97883999999997 -113.3443 C -46.96813999999997 -110.13574 -37.20806999999997 -98.168 -28.65191999999997 -92.55303 C -20.095769999999966 -86.93806000000001 -19.29362999999997 -84.53164000000001 -18.758869999999966 -81.85784000000001 C -18.224109999999968 -79.18404000000001 -16.619829999999965 -74.10383000000002 -21.432669999999966 -59.130570000000006 C -26.245499999999964 -44.15731000000001 -32.55966999999997 -16.457060000000006 -32.55966999999997 -16.457060000000006 C -32.55966999999997 -16.457060000000006 -35.33641999999997 -4.157590000000006 -28.65191999999997 1.9921399999999956 C -21.96742999999997 8.141869999999995 1.6649300000000302 3.3290399999999956 1.6649300000000302 3.3290399999999956 C 1.6649300000000302 3.3290399999999956 34.17515000000003 -6.980090000000004 56.10029000000003 -33.1833 C 78.02542000000003 -59.38651 104.35589000000003 -139.37736 104.35589000000003 -139.37736 C 104.35589000000003 -139.37736 105.26527000000003 -145.53281 114.62356000000003 -153.5542 C 123.98185000000002 -161.57559 130.93372000000002 -161.30821 130.93372000000002 -161.30821 L 178.81613000000002 -161.30821 C 178.81613000000002 -161.30821 184.16372 -162.21616 189.24394 -159.80974 C 194.32415 -157.40332 196.99795 -151.52097 196.99795 -151.52097 L 226.40971000000002 -99.11455000000001 C 226.40971000000002 -99.11455000000001 228.81613000000002 -95.09459000000001 228.28137 -91.35127000000001 C 227.74661 -87.60795000000002 226.67709000000002 -83.99687000000002 224.80543 -81.85784000000001 C 222.93377 -79.71880000000002 162.85153 -7.341110000000015 162.85153 -7.341110000000015 C 162.85153 -7.341110000000015 156.96918 -0.12186000000001496 156.96918 7.097389999999985 C 156.96918 14.316639999999985 159.91036 18.862099999999984 159.91036 18.862099999999984 L 233.7815 127.23808999999999 C 233.7815 127.23808999999999 245.54621 144.08300999999997 245.81359 156.38248 C 246.08097 168.68194999999997 229.88565 175.09905999999998 229.88565 175.09905999999998 C 229.88565 175.09905999999998 223.61946 176.62209 219.1743 176.50587 z" stroke-linecap="round" />
</g>
</svg>