<svg xmlns="http://www.w3.org/2000/svg" viewBox="0 0 400 280">
  <path style="stroke: #505050; fill-opacity: 0.6; stroke-opacity: 0.9; fill: none; stroke-width:3.2474" d="M 68.519 73.884 C 68.519 73.884 344.757 84.387 344.706 84.387 C 344.655 84.387 351.234 83.926 344.906 95.928 C 338.578 107.93 343.865 102.449 348.341 104.589 C 352.817 106.729 344.494 117.869 339.701 117.935 C 334.908 118.001 322.147 116.409 318.836 121.674 C 315.525 126.939 312.173 135.704 329.972 142.51 C 347.771 149.316 230.287 187.976 221.899 186.693 C 213.511 185.41 202.595 195.942 163.283 180.322 C 123.971 164.702 106.982 176.777 91.007 174.673 C 75.032 172.569 66.053 164.777 42.877 169.742 C 19.701 174.707 23.254 145.162 48.258 141.405 C 69.128 138.269 63.616 153.341 81.04 154.366 C 90.232 154.907 100.058 141.756 113.641 145.132 C 133.744 150.129 149.445 174.302 188.942 173.933 C 231.465 173.536 208.145 145.398 217.191 143.515 C 224.015 142.095 229.636 136.455 230.488 133.976 C 231.972 129.658 220.436 124.038 185.559 103.289 C 163.865 90.383 137.224 82.76 132.301 82.39 C 118.261 81.336 101.902 93.035 89.594 93.037 C 74.43 93.039 56.482 78.292 68.519 73.884 Z"/>
</svg>