<?xml version="1.0" encoding="UTF-8" standalone="no" ?>
<!DOCTYPE svg PUBLIC "-//W3C//DTD SVG 1.1//EN" "http://www.w3.org/Graphics/SVG/1.1/DTD/svg11.dtd">
<svg xmlns="http://www.w3.org/2000/svg" xmlns:xlink="http://www.w3.org/1999/xlink" version="1.1" width="500" height="500" viewBox="0 0 500 500" xml:space="preserve">
<desc>Created with Fabric.js 4.6.0</desc>
<defs>
</defs>
<g transform="matrix(1 0 0 1 246.8 251.34)" id="Jau8bG3dLG5uj4bweLllv"  >
<path style="stroke: #505050; stroke-width: 6; stroke-dasharray: none; stroke-linecap: butt; stroke-dashoffset: 0; stroke-linejoin: miter; stroke-miterlimit: 4; fill: rgb(255,255,255); fill-opacity: 0; fill-rule: nonzero; opacity: 1;" vector-effect="non-scaling-stroke"  transform=" translate(0, 0)" d="M -114.77924 -119.19708 C -128.13761 -118.45825 -141.27144 -126.93471 -143.91768 -121.91434 C -146.56393 -116.89397 -142.69913 -48.12593 -143.91768 -36.53698 C -145.13622999999998 -24.94803 -151.62207999999998 -8.89187 -183.38308999999998 1.4854800000000026 C -193.5374 3.8182300000000025 -207.54191999999998 10.307350000000003 -212.25092999999998 17.122300000000003 C -216.95994 23.937250000000002 -217.81705 26.370360000000005 -221.90509999999998 43.651700000000005 C -223.15158999999997 48.92098000000001 -224.89404 52.412530000000004 -218.01656999999997 56.56517000000001 C -214.80059999999997 58.506980000000006 -208.49175999999997 58.53801000000001 -177.39323999999996 80.38322000000001 C -146.29472999999996 102.22844 -89.98685999999996 127.77120000000001 -68.91766999999996 131.38755 C -47.848489999999956 135.00390000000002 213.87021000000001 130.66028 213.87021000000001 130.66028 C 213.87021000000001 130.66028 211.75243 116.20974 221.97255 117.31037 C 222.73813 98.411 223.06346000000002 -60.121880000000004 223.06346000000002 -60.121880000000004 C 223.06346000000002 -60.121880000000004 179.03830000000002 -128.51811 169.60434000000004 -132.44892 C 160.17038000000002 -136.37974 161.27101000000005 -108.70677999999998 178.56660000000005 -89.05268999999998 C 187.74841000000006 -78.61881999999999 178.25455000000005 -60.30231999999998 163.41479000000004 -55.71935999999999 C 150.30118000000004 -51.669479999999986 87.38105000000004 -51.631309999999985 73.06345000000005 -51.631309999999985 C 58.74585000000005 -51.631309999999985 -56.49629999999996 -45.341999999999985 -62.47113999999996 -51.631309999999985 C -68.44597999999996 -57.920619999999985 -61.999439999999964 -85.79011999999999 -65.30132999999996 -97.70048999999999 C -68.60321999999996 -109.61086999999999 -76.77931999999997 -126.15960999999999 -102.09377999999997 -126.31683999999998 C -115.36764999999997 -128.88180999999997 -108.68804999999996 -119.53395999999998 -114.77923999999997 -119.19706999999998 z" stroke-linecap="round" />
</g>
</svg>